<svg width="15" height="14" viewBox="0 0 15 14" fill="none" xmlns="http://www.w3.org/2000/svg">
<path d="M0.015992 13.984H3.01202V3.99796H0.015992V13.984ZM11.688 3.65205C10.234 3.65205 8.93301 4.18305 8.01009 5.35509V3.96511H5.00308V13.9841H8.01009V8.56609C8.01009 7.42106 9.05911 6.30405 10.3731 6.30405C11.687 6.30405 12.0111 7.42106 12.0111 8.53808V13.9831H15.0071V8.31509C15.007 4.37802 13.143 3.65205 11.688 3.65205ZM1.5 3.00001C2.32801 3.00001 3.00005 2.32798 3.00005 1.49997C3.00005 0.671954 2.32801 3.05176e-05 1.5 3.05176e-05C0.671987 3.05176e-05 -4.57764e-05 0.672063 -4.57764e-05 1.50008C-4.57764e-05 2.32809 0.671987 3.00001 1.5 3.00001Z" />
</svg>
