
<svg version="1.0" xmlns="http://www.w3.org/2000/svg"
 width="225.000000pt" height="225.000000pt" viewBox="0 0 225.000000 225.000000"
 preserveAspectRatio="xMidYMid meet">

<g transform="translate(0.000000,225.000000) scale(0.100000,-0.100000)"
fill="#000000" stroke="none">
<path d="M1090 2057 c-22 -11 -26 -21 -31 -77 -4 -36 -7 -102 -8 -147 l-1 -82
-57 -11 c-32 -6 -64 -12 -72 -13 -9 -1 -28 40 -56 122 -23 67 -48 127 -56 132
-8 5 -30 8 -49 7 -25 -2 -38 -10 -49 -30 -14 -24 -12 -35 23 -153 21 -69 36
-128 35 -129 -10 -9 -130 -66 -138 -66 -5 0 -33 38 -62 85 -61 101 -91 135
-117 135 -30 0 -72 -38 -72 -66 0 -13 29 -72 65 -129 36 -58 65 -107 65 -109
0 -2 -27 -28 -60 -56 l-61 -53 -57 64 c-120 135 -149 152 -192 109 -38 -38
-26 -67 65 -174 46 -55 81 -104 78 -110 -4 -6 -31 -43 -60 -82 -70 -93 -133
-216 -133 -258 0 -109 221 -402 411 -546 339 -255 674 -302 1018 -144 300 138
640 504 641 691 0 53 -58 169 -140 277 l-59 79 32 37 c18 21 53 62 79 92 61
69 68 99 34 132 -43 43 -62 35 -158 -66 -97 -103 -84 -101 -172 -25 l-39 34
67 111 c61 98 67 114 59 139 -14 40 -53 61 -87 45 -22 -10 -135 -167 -149
-207 -5 -14 -147 56 -147 73 0 7 16 65 35 128 38 125 36 151 -11 173 -57 26
-87 -12 -134 -172 -13 -43 -27 -80 -31 -83 -4 -2 -40 1 -78 7 l-71 12 0 134
c0 129 -1 135 -25 158 -27 28 -39 30 -75 12z m185 -562 c88 -23 232 -96 322
-164 88 -66 242 -222 292 -295 18 -26 34 -59 34 -73 0 -36 -61 -117 -170 -227
-312 -314 -622 -393 -933 -237 -108 54 -196 119 -308 226 -105 100 -182 200
-182 236 0 48 102 174 230 287 147 130 283 209 423 247 70 19 219 19 292 0z"/>
<path d="M1008 1371 c-207 -66 -334 -266 -298 -470 24 -138 112 -255 237 -314
64 -30 75 -32 178 -32 103 0 114 2 178 32 260 123 324 459 127 667 -110 117
-277 163 -422 117z"/>
</g>
</svg>
